<?xml version="1.0" encoding="UTF-8" standalone="no"?> <svg xmlns="http://www.w3.org/2000/svg" viewBox="0 0 512 512"><title>hangar</title><g id="hangar"><path d="M440,335.22V316.34l-34.32-33.4h0l-3.44-3.35,0-4.81c-.1-9.59-.24-20.19-.33-25.31-23.43-33.33-52.17-57.27-85.48-71.18-26.89-11.23-48.7-12.44-56.82-12.44-1.46,0-2.37,0-2.71,0s-.59,0-.88,0l-.89,0c-.33,0-1.24,0-2.7,0-8.12,0-29.93,1.21-56.82,12.44-33.3,13.91-62,37.84-85.48,71.18-.09,5.12-.23,15.72-.33,25.31l0,4.81-3.45,3.36L72,316.34v70.28h91.77V287H348.27v99.67H440ZM298.22,230.1a1.66,1.66,0,0,1-1.66,1.67H215.44a1.66,1.66,0,0,1-1.66-1.67V214.51a1.66,1.66,0,0,1,1.66-1.66h81.12a1.66,1.66,0,0,1,1.66,1.66Z"/><path d="M436.89,233.31C419.8,205.51,362.68,127.21,256,125.38,149.32,127.21,92.21,205.51,75.11,233.31l.75,20.32L49.7,278.92a11.36,11.36,0,0,0-3.64,8.33v27.47a4.51,4.51,0,0,0,4.54,4.52A4.44,4.44,0,0,0,53.72,318l44.49-43.3s.31-28.77.44-29a234.08,234.08,0,0,1,40.91-46.1c49.32-42.22,99.28-45.32,112.85-45.32,1.71,0,2.83,0,3.32.07h.54c.49,0,1.62-.07,3.32-.07,13.57,0,63.52,3.09,112.84,45.31a234.18,234.18,0,0,1,40.92,46.11c.13.19.44,29,.44,29L458.28,318a4.44,4.44,0,0,0,3.12,1.29,4.51,4.51,0,0,0,4.54-4.52V287.25a11.36,11.36,0,0,0-3.64-8.33l-25.45-24.61Z"/></g></svg>