<?xml version="1.0" encoding="UTF-8"?>
<!DOCTYPE svg PUBLIC "-//W3C//DTD SVG 1.1//EN" "http://www.w3.org/Graphics/SVG/1.1/DTD/svg11.dtd">
<!-- Creator: CorelDRAW -->
<svg xmlns="http://www.w3.org/2000/svg" xml:space="preserve" width="512px" height="512px" version="1.1" style="shape-rendering:geometricPrecision; text-rendering:geometricPrecision; image-rendering:optimizeQuality; fill-rule:evenodd; clip-rule:evenodd"
viewBox="0 0 512 512"
 xmlns:xlink="http://www.w3.org/1999/xlink">
 <defs>
  <style type="text/css">
   <![CDATA[
    .fil0 {fill:black}
   ]]>
  </style>
 </defs>
 <g id="Layer_x0020_1">
  <metadata id="CorelCorpID_0Corel-Layer"/>
  <path class="fil0" d="M450 512l-42 0 0 -99c0,-4 -3,-7 -7,-7 -4,0 -7,3 -7,7l0 99 -21 0 0 -99c0,-4 -3,-7 -7,-7 -4,0 -7,3 -7,7l0 99 -206 0 0 -99c0,-4 -3,-7 -7,-7 -4,0 -7,3 -7,7l0 99 -21 0 0 -99c0,-4 -3,-7 -7,-7 -4,0 -7,3 -7,7l0 99 -42 0c-4,0 -7,-3 -7,-7l0 -100c0,-39 35,-70 79,-70l62 0 0 33c0,29 23,52 52,52l16 0c29,0 52,-23 52,-52l0 -33 62 0c44,0 79,31 79,70l0 100c0,4 -3,7 -7,7z"/>
  <path class="fil0" d="M264 406l-16 0c-21,0 -38,-17 -38,-38l0 -50c7,1 14,2 21,2l50 0c7,0 14,-1 21,-2l0 50c0,21 -17,38 -38,38z"/>
  <path class="fil0" d="M281 306l-50 0c-48,0 -87,-39 -87,-87l0 -76c0,-48 39,-87 87,-87l50 0c48,0 87,39 87,87l0 0 0 0 0 0 0 76c0,48 -39,87 -87,87zm73 -156l-55 0c-2,0 -4,-1 -5,-2l-13 -13 -12 13c-1,1 -3,2 -5,2l-106 0 0 69c0,40 33,73 73,73l50 0c40,0 73,-33 73,-73l0 -69z"/>
  <path class="fil0" d="M151 213c-15,0 -27,-13 -27,-28l0 -8c0,-15 12,-27 27,-27 4,0 7,3 7,7l0 49c0,4 -3,7 -7,7z"/>
  <path class="fil0" d="M361 213c-4,0 -7,-3 -7,-7l0 -49c0,-4 3,-7 7,-7 15,0 27,12 27,27l0 8c0,15 -12,28 -27,28z"/>
  <path class="fil0" d="M261 278l-10 0c-18,0 -33,-15 -33,-33 0,-4 3,-7 7,-7l62 0c4,0 7,3 7,7 0,18 -15,33 -33,33zm-28 -26c3,7 10,12 18,12l10 0c8,0 15,-5 18,-12l-46 0z"/>
  <path class="fil0" d="M230 198c-4,0 -7,-3 -7,-7 0,-6 -7,-11 -15,-11 -8,0 -15,5 -15,11 0,4 -3,7 -7,7 -4,0 -7,-3 -7,-7 0,-14 13,-25 29,-25 16,0 29,11 29,25 0,4 -3,7 -7,7z"/>
  <path class="fil0" d="M325 198c-4,0 -7,-3 -7,-7 0,-6 -6,-11 -14,-11 -8,0 -15,5 -15,11 0,4 -3,7 -7,7 -4,0 -7,-3 -7,-7 0,-14 13,-25 29,-25 16,0 28,11 28,25 0,4 -3,7 -7,7z"/>
  <polygon class="fil0" points="131,14 131,14 "/>
  <path class="fil0" d="M96 140c-2,0 -3,0 -4,-2l-21 -16 -32 0c-8,0 -15,-7 -15,-15l0 -91c0,-9 7,-16 15,-16l92 0c8,0 15,7 15,16l0 91c0,8 -7,15 -15,15l-28 0 0 11c0,3 -2,5 -4,6 -1,1 -2,1 -3,1zm35 -126l0 0 0 0zm-22 84c-3,0 -5,-2 -7,-4l-7 -18 -20 0 -7 18c-2,2 -4,4 -7,4 -1,0 -2,0 -3,0 -3,-2 -5,-6 -3,-10l8 -21c0,0 1,-1 1,-1l14 -35c1,-3 2,-5 4,-5 3,-2 6,-1 8,1l0 0c1,1 2,2 2,3l14 36c0,0 1,0 1,1l8 21c2,4 0,8 -3,9 -1,1 -2,1 -3,1zm-19 -36l-5 -11 -5 11 10 0z"/>
  <path class="fil0" d="M416 140c-1,0 -2,0 -3,-1 -2,-1 -4,-3 -4,-6l0 -11 -28 0c-8,0 -15,-7 -15,-15l0 -91c0,-9 7,-16 15,-16l91 0c9,0 16,7 16,16l0 91c0,8 -7,15 -16,15l-32 0 -20 16c-1,2 -2,2 -4,2zm38 -88l-7 0c-2,5 -5,13 -11,22 4,3 8,7 13,10 4,2 5,6 3,9 -1,3 -4,4 -6,4 -1,0 -2,0 -4,-1 -6,-3 -11,-8 -15,-12 -5,5 -10,9 -17,12 -1,1 -2,1 -3,1 -3,0 -5,-1 -6,-4 -2,-3 -1,-7 3,-9 5,-3 10,-7 14,-11 -6,-8 -10,-16 -11,-21l-7 0c-4,0 -7,-3 -7,-7 0,-4 3,-7 7,-7l11 0c1,0 1,0 2,0l7 0 0 -6c0,-4 3,-7 7,-7 4,0 7,3 7,7l0 6 20 0c4,0 7,3 7,7 0,4 -3,7 -7,7zm-27 10c2,-4 4,-7 5,-10l-5 0 -5 0c1,3 3,6 5,10z"/>
 </g>
</svg>
