<?xml version="1.0" encoding="UTF-8" standalone="no"?> <svg id="Layer_1" data-name="Layer 1" xmlns="http://www.w3.org/2000/svg" viewBox="0 0 64 64"><title>tent_1</title><path d="M60,61H4a1,1,0,0,1-.8-.4A1,1,0,0,1,3,59.73l10-36A1,1,0,0,1,14,23H50a1,1,0,0,1,1,.73l10,36a1,1,0,0,1-.16.87A1,1,0,0,1,60,61ZM5.32,59H58.68L49.24,25H14.76Z"/><path d="M24,61a1,1,0,0,1-1-.73l-10-36A1,1,0,0,1,15,23.73l10,36A1,1,0,0,1,24.27,61,.84.84,0,0,1,24,61Z"/><path d="M14,25a1,1,0,0,1-1-1V14a1,1,0,0,1,2,0V24A1,1,0,0,1,14,25Z"/><path d="M14,15a1,1,0,0,1-.45-.11l-6-3a1,1,0,0,1,0-1.78l6-3A1,1,0,0,1,15,8v6a1,1,0,0,1-.47.85A1,1,0,0,1,14,15Zm-3.76-4L13,12.38V9.62Z"/><path d="M50,25a1,1,0,0,1-1-1V14a1,1,0,0,1,2,0V24A1,1,0,0,1,50,25Z"/><path d="M50,15a1,1,0,0,1-.45-.11l-6-3A1,1,0,0,1,43,11a1,1,0,0,1,.55-.9l6-3A1,1,0,0,1,51,8v6a1,1,0,0,1-1,1Zm-3.76-4L49,12.38V9.62Z"/><path d="M11,61a1,1,0,0,1-1-1.29l3-10a1,1,0,1,1,1.92.58l-3,10A1,1,0,0,1,11,61Z"/><path d="M17,61a1,1,0,0,1-1-.71l-3-10A1,1,0,0,1,15,49.71l3,10A1,1,0,0,1,17,61Z"/></svg>